<svg width="46" height="44" viewBox="0 0 46 44" fill="none" xmlns="http://www.w3.org/2000/svg">
<rect opacity="0.1" x="0.9375" width="44.9341" height="44" rx="20" fill="#7E51FF"/>
<path fill-rule="evenodd" clip-rule="evenodd" d="M32.3913 13.2H14.4177C13.1708 13.2 12.1823 14.179 12.1823 15.4L12.171 28.6C12.171 29.821 13.1708 30.8 14.4177 30.8H32.3913C33.6383 30.8 34.638 29.821 34.638 28.6V15.4C34.638 14.179 33.6383 13.2 32.3913 13.2ZM32.3914 28.6H14.4178V22H32.3914V28.6ZM14.4178 17.6H32.3914V15.4H14.4178V17.6Z" fill="#7E51FF"/>
<path fill-rule="evenodd" clip-rule="evenodd" d="M20.9228 15.3149H20.3083C20.2917 15.2584 20.2817 15.1986 20.2792 15.1365H20.9832C20.969 15.1963 20.9492 15.2559 20.9228 15.3149Z" fill="#BCBCB7"/>
</svg>
