<svg width="46" height="44" viewBox="0 0 46 44" fill="none" xmlns="http://www.w3.org/2000/svg">
<rect opacity="0.1" x="0.556396" width="44.9341" height="44" rx="20" fill="#00D2FF"/>
<path fill-rule="evenodd" clip-rule="evenodd" d="M32.0101 13.2H14.0365C12.7896 13.2 11.801 14.179 11.801 15.4L11.7898 28.6C11.7898 29.821 12.7896 30.8 14.0365 30.8H32.0101C33.257 30.8 34.2568 29.821 34.2568 28.6V15.4C34.2568 14.179 33.257 13.2 32.0101 13.2ZM32.0103 28.6H14.0366V22H32.0103V28.6ZM14.0366 17.6H32.0103V15.4H14.0366V17.6Z" fill="#00D2FF"/>
<path fill-rule="evenodd" clip-rule="evenodd" d="M20.5418 15.3149H19.9273C19.9108 15.2584 19.9007 15.1986 19.8982 15.1365H20.6023C20.5881 15.1963 20.5682 15.2559 20.5418 15.3149Z" fill="#BCBCB7"/>
</svg>
